Coordinates
version=1
nRows=17
nColumns=40
inDegrees=yes

Units are S.I. units (second, meters, Newtons, ...)
Angles are in degrees.

endheader
time	pelvis_tilt	pelvis_list	pelvis_rotation	pelvis_tx	pelvis_ty	pelvis_tz	hip_flexion_r	hip_adduction_r	hip_rotation_r	knee_angle_r	knee_angle_r_beta	ankle_angle_r	subtalar_angle_r	mtp_angle_r	hip_flexion_l	hip_adduction_l	hip_rotation_l	knee_angle_l	knee_angle_l_beta	ankle_angle_l	subtalar_angle_l	mtp_angle_l	lumbar_extension	lumbar_bending	lumbar_rotation	arm_flex_r	arm_add_r	arm_rot_r	elbow_flex_r	pro_sup_r	wrist_flex_r	wrist_dev_r	arm_flex_l	arm_add_l	arm_rot_l	elbow_flex_l	pro_sup_l	wrist_flex_l	wrist_dev_l
      0.55000000	     -1.35462559	      0.27360751	      5.02120769	     -0.40128689	      0.95962585	      1.51011377	      3.41909998	     -0.30330923	    -17.16415826	    -15.43905156	     -0.26946228	      7.80939166	     -3.33538045	     -2.85459932	     23.70938382	      4.13775013	     15.03952312	    -42.24085255	     -0.73724196	      7.18231385	     16.15751088	     12.40757338	     -3.91129947	     -4.16010534	      2.44294173	      3.67527587	    -14.64771000	    -17.59483276	     21.44907691	     89.95437384	      0.00000000	      0.00000000	     -7.63596596	     15.32203234	     12.62814979	     11.03351730	     89.95437384	      0.00000000	      0.00000000
      0.56000000	     -1.75147654	     -0.01279542	      4.86392581	     -0.39254053	      0.95838909	      1.51056335	      3.15890099	      0.09298688	    -17.40260321	    -15.15981323	     -0.26458865	      8.12811863	     -3.26010783	     -2.96085793	     24.87722882	      4.37673259	     15.21518672	    -39.77550454	     -0.69421352	      7.08409074	     15.84688163	     12.37168076	     -3.46258655	     -3.92957849	      2.77468909	      4.19282222	    -14.90722999	    -17.32415919	     22.01252484	     89.95437384	      0.00000000	      0.00000000	     -8.22386681	     15.35227902	     12.78198763	     10.95806915	     89.95437384	      0.00000000	      0.00000000
      0.57000000	     -1.51482813	      0.74581957	      4.46690461	     -0.38328445	      0.95854847	      1.51040413	      2.05516225	     -0.79003191	    -17.68169524	    -14.84790703	     -0.25914486	      8.43606651	     -1.73114445	     -5.34091751	     24.58023179	      3.36821772	     15.55285573	    -36.07418048	     -0.62961322	      5.85241228	     15.64137918	     11.93717659	     -3.86344042	     -4.79729533	      2.91692620	      4.86014454	    -15.27384773	    -15.35135002	     22.79510402	     89.95437384	      0.00000000	      0.00000000	     -8.72352109	     15.19466125	     15.82501981	     10.76033556	     89.95437384	      0.00000000	      0.00000000
      0.58000000	     -1.52875982	      0.83200383	      4.18894775	     -0.37421780	      0.95786247	      1.51044611	      1.29771589	     -0.79835466	    -17.58278856	    -14.50512549	     -0.25316220	      8.69443930	     -1.73500084	     -5.83275208	     24.81765816	      3.13850323	     15.56836657	    -32.80650033	     -0.57258145	      5.21313844	     15.17842356	     11.95170827	     -3.88774823	     -4.93682862	      3.31189912	      5.33344168	    -15.60574206	    -14.67977064	     23.57352634	     89.95437384	      0.00000000	      0.00000000	     -9.26727450	     15.16472230	     16.17218158	     10.86971014	     89.95437384	      0.00000000	      0.00000000
      0.59000000	     -1.47695341	      0.88132342	      3.93513027	     -0.36496535	      0.95715743	      1.51041789	      0.39516485	     -0.77855172	    -17.66369538	    -14.04005686	     -0.24504522	      8.99132704	     -1.48373994	     -6.34726248	     24.96043618	      3.02219012	     15.81050101	    -29.62963684	     -0.51713472	      4.71243593	     14.50729858	     11.91889146	     -3.96618143	     -5.03853409	      3.64548001	      5.81025532	    -15.92044434	    -13.88129269	     24.32407608	     89.95437384	      0.00000000	      0.00000000	     -9.83337933	     15.11128825	     17.00909712	     11.05041280	     89.95437384	      0.00000000	      0.00000000
      0.60000000	     -1.75711673	      0.55024923	      3.72267737	     -0.35607582	      0.95561858	      1.51040009	      0.02514223	     -0.37957587	    -17.69681607	    -13.84122126	     -0.24157488	      9.25230213	     -1.30478793	     -6.50252691	     25.64180441	      3.26726771	     15.53691368	    -26.82925179	     -0.46825878	      4.56208137	     13.70061831	     11.85120143	     -3.66842252	     -4.72265715	      4.01303129	      6.23962996	    -16.25148210	    -13.53826648	     25.11788793	     89.95437384	      0.00000000	      0.00000000	    -10.35525681	     15.01484973	     17.35858562	     11.17003834	     89.95437384	      0.00000000	      0.00000000
      0.61000000	     -1.80990404	      0.48396915	      3.47562553	     -0.34695841	      0.95447780	      1.51009065	     -0.68081301	     -0.28153926	    -17.74527126	    -13.53932966	     -0.23630588	      9.56817001	     -1.04769152	     -6.72221694	     25.86840116	      3.25972868	     15.65075207	    -23.80104047	     -0.41540652	      4.15562584	     12.62342846	     11.84243440	     -3.64893617	     -4.67304674	      4.31342779	      6.67569802	    -16.57983640	    -12.89957067	     25.99779624	     89.95437384	      0.00000000	      0.00000000	    -10.85830094	     14.90055118	     17.91496543	     11.27604500	     89.95437384	      0.00000000	      0.00000000
      0.62000000	     -1.09591448	      0.91922587	      3.13845213	     -0.33705622	      0.95461822	      1.50940746	     -2.40764494	     -0.75817789	    -18.09555035	    -13.03493844	     -0.22750259	      9.93849403	     -0.36733101	     -7.35808619	     24.96836205	      2.86114152	     16.48542210	    -20.66359895	     -0.36064784	      3.66256518	     11.28764934	     11.72720867	     -4.50558568	     -5.11730443	      4.51445389	      7.24935721	    -16.95579706	    -11.70145033	     26.86448643	     89.95437384	      0.00000000	      0.00000000	    -11.21126659	     14.74626748	     19.26859734	     11.20982187	     89.95437384	      0.00000000	      0.00000000
      0.63000000	     -0.88244713	      0.93994985	      2.80482503	     -0.32755058	      0.95365175	      1.50886099	     -3.31261648	     -0.88739635	    -18.48675777	    -12.98714395	     -0.22666842	     10.28083215	      0.56690833	     -8.12693725	     24.85248355	      2.91223702	     17.06242072	    -18.03352045	     -0.31474431	      3.20405656	      9.42569895	     11.27406921	     -4.78097055	     -5.14389737	      4.75034954	      7.76081223	    -17.30400931	    -10.81697548	     27.71379263	     89.95437384	      0.00000000	      0.00000000	    -11.63597901	     14.54460788	     20.41529941	     11.20444869	     89.95437384	      0.00000000	      0.00000000
      0.64000000	     -1.11826486	      0.75451385	      2.54365390	     -0.31847392	      0.95185720	      1.50822176	     -3.66704545	     -0.75216186	    -18.59781900	    -12.96577818	     -0.22629552	     10.59322616	      0.82634552	     -8.37165045	     25.40310872	      3.09424160	     17.05680407	    -15.84522003	     -0.27655126	      2.95935930	      7.93946833	     11.11762102	     -4.56176326	     -4.93920807	      5.08916670	      8.14023347	    -17.61954044	    -10.50468689	     28.58754781	     89.95437384	      0.00000000	      0.00000000	    -11.99798048	     14.39951417	     20.68575434	     11.15355876	     89.95437384	      0.00000000	      0.00000000
      0.65000000	     -0.66160517	      1.03684902	      2.06631289	     -0.30842856	      0.95117235	      1.50747165	     -4.86751474	     -1.27674505	    -19.28028222	    -12.94896610	     -0.22600209	     11.05207863	      2.43557429	     -9.90039651	     24.97308598	      3.09672169	     18.65279926	    -13.71495217	     -0.23937107	      2.12950876	      4.46106996	      9.95891730	     -5.06791994	     -5.23248465	      5.42077349	      8.61981072	    -17.95170340	     -9.61025677	     29.43847202	     89.95437384	      0.00000000	      0.00000000	    -12.33069849	     14.22084081	     21.67947123	     11.03229647	     89.95437384	      0.00000000	      0.00000000
      0.66000000	     -0.55911339	      1.27646793	      1.53855191	     -0.29887163	      0.94989156	      1.50673876	     -5.48389834	     -1.74074657	    -19.35737394	    -13.21929453	     -0.23072021	     11.38165528	      2.84263583	    -10.67960947	     24.99910253	      3.02348089	     19.57073254	    -11.84842876	     -0.20679409	      1.56314323	      2.16241998	      9.42106700	     -5.21037596	     -5.49994434	      5.89244344	      9.04804589	    -18.19997883	     -9.24291281	     30.27033526	     89.95437384	      0.00000000	      0.00000000	    -12.60605055	     14.07139006	     22.00565225	     10.96953119	     89.95437384	      0.00000000	      0.00000000
      0.67000000	     -0.73613903	      1.19792928	      1.10869115	     -0.28958183	      0.94814568	      1.50609799	     -5.78954737	     -1.80336802	    -19.25092393	    -13.41980869	     -0.23421985	     11.65059768	      3.04503362	    -10.89715857	     25.43972801	      3.18261088	     19.34922070	    -10.38320569	     -0.18122113	      1.32238524	      0.83487071	      9.28187720	     -5.03386014	     -5.43135188	      6.30741660	      9.44948334	    -18.37869525	     -9.04735277	     30.95998681	     89.95437384	      0.00000000	      0.00000000	    -12.88803201	     13.94660663	     22.05580144	     10.83305216	     89.95437384	      0.00000000	      0.00000000
      0.68000000	     -0.42153316	      1.57206427	      0.44355879	     -0.27938877	      0.94723416	      1.50529641	     -6.64413956	     -2.50422924	    -19.39667815	    -13.74141581	     -0.23983295	     12.08602889	      3.74639270	    -11.61162688	     25.12888200	      3.05922888	     20.52833302	     -8.96304439	     -0.15643464	      0.53169342	     -1.21648409	      9.01529350	     -5.33887830	     -5.83977611	      6.81253065	      9.84739467	    -18.62542605	     -8.38914867	     31.72778612	     89.95437384	      0.00000000	      0.00000000	    -13.17424644	     13.80317233	     22.29101041	     10.68468123	     89.95437384	      0.00000000	      0.00000000
      0.69000000	     -0.23600261	      1.75887264	     -0.17669285	     -0.26921923	      0.94608132	      1.50474039	     -7.33855689	     -2.98189122	    -19.41538898	    -14.06846486	     -0.24554103	     12.26224257	      4.52237389	    -12.46019057	     25.04054892	      3.15513474	     21.27348457	     -8.01018325	     -0.13980407	      0.02993351	     -2.81321991	      8.66916308	     -5.48828454	     -6.10898485	      7.32131097	     10.20857555	    -18.71886816	     -8.16173133	     32.39901060	     89.95437384	      0.00000000	      0.00000000	    -13.43788009	     13.69594669	     22.62137676	     10.59698552	     89.95437384	      0.00000000	      0.00000000
      0.70000000	     -0.35289293	      1.75545412	     -0.58995457	     -0.25932951	      0.94446116	      1.50376133	     -7.70063380	     -3.19103011	    -19.40488063	    -14.33983613	     -0.25027735	     12.20315944	      4.39080399	    -12.33812676	     25.60840383	      3.38119402	     20.99937061	     -8.05887359	     -0.14065388	     -0.00289368	     -2.81302084	      8.54326945	     -5.34544050	     -6.12055187	      7.54508445	     10.66812923	    -18.70573132	     -8.15606759	     32.89422318	     89.95437384	      0.00000000	      0.00000000	    -13.81142518	     13.51109343	     22.53814997	     10.64645125	     89.95437384	      0.00000000	      0.00000000
      0.71000000	     -0.40179311	      1.71484082	     -1.12258898	     -0.24877074	      0.94306537	      1.50307296	     -8.20643114	     -3.34752333	    -19.41206824	    -14.48053211	     -0.25273296	     12.44658861	      4.38625679	    -12.37157467	     25.76182772	      3.65357170	     20.87651146	     -7.79893744	     -0.13611714	     -0.03491379	     -2.83809384	      8.46938115	     -5.14385177	     -6.12958963	      8.05559250	     10.93138589	    -18.73790887	     -8.07678143	     33.26555009	     89.95437384	      0.00000000	      0.00000000	    -14.04679243	     13.40697242	     22.53911907	     10.52306961	     89.95437384	      0.00000000	      0.00000000
